# xmcd CD database file
#
# Track frame offsets:
#	150
#	25995
#	52723
#	78616
#
# Disc length: 1359 seconds
#
# Revision: 1
# Processed by: cddbd v1.5PL3 Copyright (c) Steve Scherf et al.
# Submitted via: CDex 1.51
#
DISCID=25054d04
DTITLE=The Alfee - 希望の橋
DYEAR=2004
DGENRE=Pop
TTITLE0=希望の橋
TTITLE1=夜明けの星を目指して
TTITLE2=希望の橋〜Original Instrumental〜
TTITLE3=希望の鐘が鳴る朝に〜2004 Mix Version〜
EXTD=YEAR: 2004
EXTT0=
EXTT1=
EXTT2=
EXTT3=
PLAYORDER=
